# xmcd
#
# Track frame offsets: 
#        150
#        15203
#        31908
#        47387
#        69940
#        94017
#        120700
#        148349
#        164498
#        189745
#        204066
#        220159
#        236030
#        262017
#        277434
#        295945
#        320008
#
# Disc length: 4460 seconds
#
# Revision: 0
# Processed by: cddbd v1.5.2PL0 Copyright (c) Steve Scherf et al.
# Submitted via: ExactAudioCopy v1.0b3
#
DISCID=00116a11
DTITLE=K.K. Project - DJ Profile Edition
DYEAR=1900
DGENRE=
TTITLE0=Clubbstars - Let The Bass Kick
TTITLE1=Killer K. - Turn It Up
TTITLE2=Set Me Free
TTITLE3=After Hour - Yah K.K.
TTITLE4=Ibiza United Vs. K.K. Project - DJ... Cut! (Xtd Version)
TTITLE5=Kickbeat - Music
TTITLE6=JKB - Ibiza (How Are U?) (K.K. Rmx)
TTITLE7=Heaven
TTITLE8=K.K. System - Housetime Is Anytime
TTITLE9=K.K. Project Feat. DJ Scotty - Du Hast, Du Lachst
TTITLE10=Allright Is Every...
TTITLE11=Ibiza United Vs. K.K. Project - Wait A Minute (Hands Up!)
TTITLE12=Rodrigues - Borriquito
TTITLE13=Killer K. - Get On The Move
TTITLE14=After Hour - I Love Elvis
TTITLE15=Master Wong - Baby Got Back
TTITLE16=K.K. System - Fax U...
EXTD=
EXTT0=
EXTT1=
EXTT2=
EXTT3=
EXTT4=
EXTT5=
EXTT6=
EXTT7=
EXTT8=
EXTT9=
EXTT10=
EXTT11=
EXTT12=
EXTT13=
EXTT14=
EXTT15=
EXTT16=
PLAYORDER=
